<svg xmlns="http://www.w3.org/2000/svg" viewBox="0 0 347.7 33.7" style="enable-background:new 0 0 347.7 33.7" id="logo" width="100%" height="100%"><path style="fill:#6180c3" d="M16.8 0c9.4 0 16.9 7.6 16.9 16.9s-7.5 16.8-16.9 16.8S0 26.2 0 16.9 7.4 0 16.8 0zm0 26.3c5.2 0 9.4-4.2 9.4-9.3 0-5.2-4.2-9.4-9.4-9.4-5.1 0-9.3 4.3-9.3 9.4 0 5 4.2 9.3 9.3 9.3zM39.2 1.3c0-.5.4-.9.9-.9h11.3c5.8 0 10.5 4.7 10.5 10.4 0 5.8-4.7 10.6-10.5 10.6h-4.9v11c0 .5-.4.9-.9.9h-5.5c-.5 0-.9-.4-.9-.9V1.3zM51 14.5c2 0 3.7-1.6 3.7-3.7 0-2-1.7-3.5-3.7-3.5h-4.5v7.2H51zM67.1 1.3c0-.5.4-.9.9-.9h19.4c.5 0 .9.4.9.9v5.1c0 .5-.4.9-.9.9h-13v5.8h10.7c.5 0 .9.4.9.9v5.1c0 .5-.4.9-.9.9H74.4v6.3h13c.5 0 .9.4.9.9v5.1c0 .5-.4.9-.9.9H68c-.5 0-.9-.4-.9-.9v-31zM94.5.8c0-.5.4-.8.9-.8h1.2l18.7 18V1.3c0-.5.4-.9.9-.9h5.6c.5 0 .9.4.9.9v31.6c0 .5-.4.8-.9.8h-.8c-.1 0-.5-.1-.6-.2L102 14.9v17.5c0 .5-.4.9-.9.9h-5.6c-.5 0-.9-.4-.9-.9L94.5.8zM141.2 1.3c0-.5.4-.9.9-.9H153c5.5 0 10.1 3.8 10.1 8.7 0 3.6-3.2 6.2-5.4 7.4 2.5 1 6.3 3.3 6.3 7.6 0 5.3-4.6 9.1-10.2 9.1h-11.6c-.5 0-.9-.4-.9-.9v-31h-.1zm11 12.5c1.8 0 3.3-1.5 3.3-3.4s-1.5-3.2-3.3-3.2h-3.7v6.6h3.7zm.6 12.8c1.8 0 3.4-1.5 3.4-3.4s-2-3.3-3.8-3.3h-3.8v6.7h4.2zM166.8 32.1L181.5.5c.1-.3.5-.5.8-.5h.5c.3 0 .7.2.8.5l14.7 31.6c.3.6-.1 1.2-.8 1.2h-5.2c-.8 0-1.2-.3-1.6-1.2l-1.7-3.7h-12.8l-1.7 3.8c-.2.6-.8 1.1-1.7 1.1h-5.2c-.7 0-1.1-.6-.8-1.2zM186.1 22l-3.6-7.7L179 22h7.1zM202.7.8c0-.5.4-.8.9-.8h1.2l18.7 18V1.3c0-.5.4-.9.9-.9h5.6c.5 0 .9.4.9.9v31.6c0 .5-.4.8-.9.8h-.8c-.1 0-.5-.1-.6-.2l-18.4-18.6v17.5c0 .5-.4.9-.9.9h-5.6c-.5 0-.9-.4-.9-.9L202.7.8zM238.2 1.6c0-.6.5-1.1 1.1-1.1h5.5c.6 0 1.1.5 1.1 1.1v12.3l10.4-13c.2-.2.6-.5.9-.5h5.9c.9 0 1.4 1 .8 1.7l-11 13.8 12 15.6c.5.7 0 1.7-.9 1.7h-6.5c-.3 0-.8-.2-.8-.3l-10.8-14.7v14c0 .6-.5 1.1-1.1 1.1h-5.5c-.7 0-1.1-.5-1.1-1.1V1.6zM270.4 1.3c0-.5.4-.9.9-.9h5.6c.5 0 .9.4.9.9v31.1c0 .5-.4.9-.9.9h-5.6c-.5 0-.9-.4-.9-.9V1.3zM285.2.8c0-.5.4-.8.9-.8h1.2L306 18V1.3c0-.5.4-.9.9-.9h5.6c.5 0 .9.4.9.9v31.6c0 .5-.4.8-.9.8h-.8c-.1 0-.5-.1-.6-.2l-18.5-18.6v17.5c0 .5-.4.9-.9.9h-5.6c-.5 0-.9-.4-.9-.9V.8zM335.7 0c3.9 0 8.3 1.6 11.5 4.4.4.3.5.9.1 1.3l-3.7 3.9c-.4.3-.9.3-1.3 0-1.8-1.6-3.8-2.3-6.1-2.3-5.1 0-9.2 4.3-9.2 9.5 0 5.1 4.2 9.3 9.3 9.3 1.4 0 2.8-.2 4.2-.8v-2.7h-3c-.5 0-.9-.4-.9-.8v-4.6c0-.5.4-.9.9-.9h9.4c.5 0 .8.4.8.9v12.6c0 .2-.2.6-.4.8 0 0-4.8 3-11.6 3-9.3 0-16.8-7.4-16.8-16.8S326.3 0 335.7 0z"></path></svg>
